# xmcd
#
# Track frame offsets: 
#        150
#        16270
#        30362
#        42667
#        56202
#        70985
#        84785
#        98952
#        111667
#        124727
#        138027
#        152157
#        167107
#        181765
#        194167
#        209390
#        219572
#        234082
#        246365
#        257802
#
# Disc length: 3799 seconds
#
# Revision: 0
# Processed by: cddbd v1.5.2PL0 Copyright (c) Steve Scherf et al.
# Submitted via: ExactAudioCopy v0.99pb5
#
DISCID=1f0ed514
DTITLE=Mahalia Jackson - Amazing Grace
DYEAR=2000
DGENRE=Gospel
TTITLE0=Amazing Grace
TTITLE1=Go Tell It On The Mountain
TTITLE2=Just Over The Hill
TTITLE3=I'm Getting Nearer My Home
TTITLE4=Bless This House
TTITLE5=Silent Night, Holy Night
TTITLE6=The Lord's Prayer
TTITLE7=I'm Glad Salvation Is Free
TTITLE8=This Are They
TTITLE9=I Walked Into The Garden
TTITLE10=Prayer Changes Things
TTITLE11=A Child Of The King
TTITLE12=I Gave Up Everything To Follow Him
TTITLE13=He's The One
TTITLE14=In My Home Over There
TTITLE15=Do You Know Him
TTITLE16=It Pays To Serve Jesus
TTITLE17=Walk With Me
TTITLE18=The Last Mile Of The Way
TTITLE19=Move On Up A Little Higher
EXTD=
EXTT0=
EXTT1=
EXTT2=
EXTT3=
EXTT4=
EXTT5=
EXTT6=
EXTT7=
EXTT8=
EXTT9=
EXTT10=
EXTT11=
EXTT12=
EXTT13=
EXTT14=
EXTT15=
EXTT16=
EXTT17=
EXTT18=
EXTT19=
PLAYORDER=
